<svg width="136" height="52" xmlns="http://www.w3.org/2000/svg" xmlns:xlink="http://www.w3.org/1999/xlink" overflow="hidden"><defs><clipPath id="clip0"><path d="M66 567 202 567 202 619 66 619Z" fill-rule="evenodd" clip-rule="evenodd"/></clipPath></defs><g clip-path="url(#clip0)" transform="translate(-66 -567)"><path d="M67 589.5C67 579.835 74.835 572 84.5 572L183.5 572C193.165 572 201 579.835 201 589.5L201 589.5C201 599.165 193.165 607 183.5 607L84.5 607C74.835 607 67 599.165 67 589.5Z" fill="#44683A" fill-rule="evenodd"/><path d="M67 589.5C67 579.835 74.835 572 84.5 572L183.5 572C193.165 572 201 579.835 201 589.5L201 589.5C201 599.165 193.165 607 183.5 607L84.5 607C74.835 607 67 599.165 67 589.5Z" fill="#44683A" fill-rule="evenodd"/><text fill="#FFFFFF" font-family="Segoe UI,Segoe UI_MSFontService,sans-serif" font-weight="400" font-size="24" transform="translate(106.061 598)">STOP</text></g></svg>